<svg id="visual" viewBox="0 0 960 540" width="960" height="540" xmlns="http://www.w3.org/2000/svg" xmlns:xlink="http://www.w3.org/1999/xlink" version="1.1"><rect x="0" y="0" width="960" height="540" fill="#ffffff"></rect><path d="M0 217L26.7 223.7C53.3 230.3 106.7 243.7 160 251.5C213.3 259.3 266.7 261.7 320 263C373.3 264.3 426.7 264.7 480 260.8C533.3 257 586.7 249 640 246.3C693.3 243.7 746.7 246.3 800 251.8C853.3 257.3 906.7 265.7 933.3 269.8L960 274L960 541L933.3 541C906.7 541 853.3 541 800 541C746.7 541 693.3 541 640 541C586.7 541 533.3 541 480 541C426.7 541 373.3 541 320 541C266.7 541 213.3 541 160 541C106.7 541 53.3 541 26.7 541L0 541Z" fill="#dbe9ff"></path><path d="M0 282L26.7 287.5C53.3 293 106.7 304 160 307.5C213.3 311 266.7 307 320 306.7C373.3 306.3 426.7 309.7 480 316.8C533.3 324 586.7 335 640 337.7C693.3 340.3 746.7 334.7 800 324.3C853.3 314 906.7 299 933.3 291.5L960 284L960 541L933.3 541C906.7 541 853.3 541 800 541C746.7 541 693.3 541 640 541C586.7 541 533.3 541 480 541C426.7 541 373.3 541 320 541C266.7 541 213.3 541 160 541C106.7 541 53.3 541 26.7 541L0 541Z" fill="#bee1ff"></path><path d="M0 398L26.7 391.2C53.3 384.3 106.7 370.7 160 366C213.3 361.3 266.7 365.7 320 369.5C373.3 373.3 426.7 376.7 480 378.7C533.3 380.7 586.7 381.3 640 383.5C693.3 385.7 746.7 389.3 800 383.2C853.3 377 906.7 361 933.3 353L960 345L960 541L933.3 541C906.7 541 853.3 541 800 541C746.7 541 693.3 541 640 541C586.7 541 533.3 541 480 541C426.7 541 373.3 541 320 541C266.7 541 213.3 541 160 541C106.7 541 53.3 541 26.7 541L0 541Z" fill="#97dbff"></path><path d="M0 435L26.7 440.2C53.3 445.3 106.7 455.7 160 458C213.3 460.3 266.7 454.7 320 451.2C373.3 447.7 426.7 446.3 480 449.7C533.3 453 586.7 461 640 457.7C693.3 454.3 746.7 439.7 800 433.2C853.3 426.7 906.7 428.3 933.3 429.2L960 430L960 541L933.3 541C906.7 541 853.3 541 800 541C746.7 541 693.3 541 640 541C586.7 541 533.3 541 480 541C426.7 541 373.3 541 320 541C266.7 541 213.3 541 160 541C106.7 541 53.3 541 26.7 541L0 541Z" fill="#61d6ff"></path></svg>